PathFileType	4	(X/Y/Z)	E:\Qualisys_Data\Carbon_Farble_Plate\Data\Amateur_Runner\S2\T1\S2T1V22_c3d.trc
DataRate	CameraRate	NumFrames	NumMarkers	Units	OrigDataRate	OrigDataStartFrame	OrigNumFrames
200.000000	200.000000	4	39	mm	200.000000	163	327
Frame#	Time	LSHO			RSHO			LICST			RICST			LASIS			LHEEL			RASIS			LTROC			RTROC			SACR			LTH1			LSK4			LTH2			LTH3			RHM5			LSK2			LTH4			RTH1			LTOE			RTH2			RTH3			RTH4			LLEP			RLEP			LSK1			LSK3			RSK1			LHM5			RSK2			LFT1			RSK3			RSK4			LLME			RLME			RTOE			RHEEL			RFT1			RFT2			LFT2			
		X1	Y1	Z1	X2	Y2	Z2	X3	Y3	Z3	X4	Y4	Z4	X5	Y5	Z5	X6	Y6	Z6	X7	Y7	Z7	X8	Y8	Z8	X9	Y9	Z9	X10	Y10	Z10	X11	Y11	Z11	X12	Y12	Z12	X13	Y13	Z13	X14	Y14	Z14	X15	Y15	Z15	X16	Y16	Z16	X17	Y17	Z17	X18	Y18	Z18	X19	Y19	Z19	X20	Y20	Z20	X21	Y21	Z21	X22	Y22	Z22	X23	Y23	Z23	X24	Y24	Z24	X25	Y25	Z25	X26	Y26	Z26	X27	Y27	Z27	X28	Y28	Z28	X29	Y29	Z29	X30	Y30	Z30	X31	Y31	Z31	X32	Y32	Z32	X33	Y33	Z33	X34	Y34	Z34	X35	Y35	Z35	X36	Y36	Z36	X37	Y37	Z37	X38	Y38	Z38	X39	Y39	Z39	

164	0.815	-223.0470886230469	1488.581176757812	-442.53173828125	-283.8060913085938	1464.567504882812	-144.5027008056641	-288.3916320800781	1024.555053710938	-448.1531982421875	-283.7941284179688	1008.8369140625	-149.528564453125	-238.7525787353516	969.5986328125	-435.8276062011719	-821.9840087890625	515.4108276367188	-327.9585876464844	-225.4664154052734	963.0188598632812	-179.8807067871094	-387.1361694335938	924.7183837890624	-452.9272155761719	-361.5022583007812	905.56787109375	-140.8181610107422	-381.3256530761719	1059.93212890625	-301.3170776367188	-347.3669128417969	662.9478759765625	-466.9102783203125	-678.4075927734375	542.1001586914062	-428.8272705078125	-425.9183349609375	689.978271484375	-463.7060241699219	-380.8004455566406	565.9603881835938	-455.6126098632812	96.20684051513672	166.9405517578125	-149.6090087890625	-582.0745849609375	560.6031494140625	-450.6848449707031	-459.3027954101562	595.9835205078125	-440.8631896972656	-150.5094299316406	671.5801391601562	-131.8536529541016	-916.3111572265624	295.599853515625	-386.3275451660156	-224.6857452392578	640.3040161132812	-119.8344573974609	-119.6246185302734	579.4788818359375	-164.6359405517578	-195.4749450683594	551.4298706054688	-151.5543670654297	-449.1932983398438	542.3833618164062	-453.1878662109375	-150.3595123291016	535.8673706054688	-151.9645690917969	-569.16943359375	482.4979553222656	-454.6603393554688	-666.87451171875	465.4906616210938	-440.2059936523438	-82.17806243896484	432.4210205078125	-151.7411041259766	-929.2738037109376	364.4104309082031	-430.3111267089844	-157.9745635986328	410.6746520996094	-137.6974334716797	-843.5895385742188	502.037109375	-297.6226196289062	-54.4682731628418	334.4443664550781	-160.9861755371094	-131.3403930664062	315.5694274902344	-149.4657897949219	-840.1551513671875	472.9685363769531	-397.1730346679688	-35.88605880737305	141.7050018310547	-182.3701629638672	132.6999206542969	216.5980682373047	-208.8437957763672	-79.91791534423828	96.25886535644533	-239.3814849853516	-51.56296920776367	83.33226776123047	-271.2548828125	-65.43367767333984	72.6218032836914	-215.7602386474609	-853.3936767578125	527.3992919921875	-344.8485717773438
165	0.82	-203.7991333007812	1484.993408203125	-441.6803894042969	-263.0025024414062	1459.8642578125	-142.6414031982422	-268.3721618652344	1020.559326171875	-447.4172058105469	-264.8414001464844	1005.417785644531	-149.5163269042969	-219.1221466064453	965.8499755859376	-435.6895751953125	-796.1348266601562	520.7672729492188	-325.8848266601562	-206.361572265625	959.1050415039062	-179.2611846923828	-366.9444274902344	919.97900390625	-453.4408264160156	-342.4547729492188	902.0783081054688	-140.2089233398438	-362.1230163574219	1056.330810546875	-301.0460205078125	-324.6204833984375	658.1924438476562	-467.8765869140625	-652.3785400390625	542.421875	-428.3484802246094	-403.5311889648438	684.1093139648438	-463.4951782226562	-356.3358154296875	560.7600708007812	-457.24462890625	110.8142700195312	160.8429718017578	-150.3701782226562	-555.638916015625	558.548095703125	-451.6395874023438	-435.3081970214844	589.80224609375	-441.1023254394531	-130.4117431640625	668.5258178710938	-132.6652984619141	-895.668701171875	303.9729614257812	-385.5167541503906	-205.1011199951172	637.2443237304688	-121.5994110107422	-99.47594451904295	576.8046264648438	-166.8993072509766	-175.1622314453125	548.5481567382812	-152.9783935546875	-424.0737915039062	536.6740112304688	-454.4076843261719	-130.1850891113281	532.5864868164062	-153.3107757568359	-545.1721801757812	479.6925964355469	-455.3462829589844	-643.298095703125	465.8170166015625	-440.017822265625	-63.74646759033203	427.8164672851562	-152.9833831787109	-907.675537109375	372.6294860839844	-429.3952331542969	-139.7577209472656	406.8475036621094	-139.2442016601562	-817.7752685546875	508.6078796386719	-295.9513244628906	-36.99028778076172	329.6162719726562	-162.0425109863281	-114.6576919555664	311.9792175292969	-151.107666015625	-815.6171264648438	479.4500122070312	-395.9101867675781	-20.92684745788574	136.7283172607422	-183.9116821289062	147.8973083496094	210.7543182373047	-209.3003387451172	-64.9463119506836	91.72771453857422	-240.9372253417969	-36.50864791870117	78.09164428710938	-272.3580322265625	-50.88142395019531	67.77433776855469	-216.9265747070312	-827.201904296875	533.9262084960938	-344.3853454589844
166	0.825	-184.2265930175781	1481.077758789062	-440.663818359375	-242.3338775634766	1454.444702148438	-141.0431060791016	-248.4011840820312	1016.789367675781	-447.1838989257812	-245.8711853027344	1001.279052734375	-149.1219482421875	-199.1659545898438	961.7216186523438	-434.7882385253906	-770.7310791015625	525.9241333007812	-326.5169982910156	-189.5337066650391	955.1423950195312	-178.6755523681641	-346.9056701660156	915.1724243164062	-453.9046936035156	-323.4736633300781	898.2491455078125	-139.7010040283203	-342.9512023925781	1051.852294921875	-300.7029113769531	-301.3907775878906	653.4193115234375	-468.5194702148438	-625.9554443359375	542.6876831054688	-428.6761474609375	-380.7880859375	677.826171875	-463.7792358398438	-331.5680847167969	555.6724243164062	-458.9324035644531	124.1253128051758	154.8194274902344	-150.5985565185547	-529.3757934570312	555.704345703125	-451.5161743164062	-410.8914489746094	583.0673217773438	-441.4558410644531	-110.1818542480469	665.8749389648438	-134.0300598144531	-874.1339721679688	311.3016662597656	-384.3800048828125	-185.0831146240234	635.0039672851562	-123.8413238525391	-79.09703063964844	574.4368286132812	-168.3697357177734	-154.96044921875	546.3308715820312	-154.9687805175781	-399.3279724121094	530.4861450195312	-455.7125244140625	-110.3583145141602	529.0633544921875	-154.2342834472656	-520.8267211914062	476.7833557128906	-455.893310546875	-619.0519409179688	464.769775390625	-440.12646484375	-45.40223693847656	422.7738342285156	-153.9532470703125	-884.6448974609375	380.7980651855469	-428.2902221679688	-121.9553985595703	403.4558715820312	-140.2093505859375	-791.5744018554688	513.8090209960938	-295.1062622070312	-20.43642234802246	324.4007263183594	-163.3811340332031	-98.26984405517578	307.538330078125	-152.5448150634766	-790.7628784179688	485.4019165039062	-394.7802734375	-7.250109195709229	131.2415008544922	-185.6804046630859	162.3991546630859	203.9513092041016	-209.9017028808594	-51.25534439086914	86.9095230102539	-242.9725799560547	-22.92183303833008	73.09727478027344	-274.0610656738281	-37.44250869750977	62.64057540893555	-218.6204986572266	-800.8680419921875	540.1884155273438	-343.1257629394531
167	0.83	-164.9842681884766	1477.184814453125	-439.156982421875	-221.1778564453125	1449.072875976562	-139.2062530517578	-228.3298187255859	1012.350219726562	-447.0563049316406	-227.5852355957031	997.150634765625	-149.097412109375	-179.6227874755859	957.5762939453124	-434.2808837890625	-744.0512084960938	531.3111572265625	-325.3362426757812	-170.7429046630859	950.9440307617188	-178.2761077880859	-326.9794006347656	909.6795043945312	-454.1820678710938	-304.4723815917969	893.9747924804688	-139.1227111816406	-323.5623474121094	1047.459350585938	-300.6141052246094	-278.4217834472656	648.3636474609375	-469.4733581542969	-599.412109375	542.5476684570312	-428.6654052734375	-358.0144958496094	672.019287109375	-464.0299682617188	-307.3448181152344	549.795166015625	-460.1781311035156	136.6794738769531	147.8325042724609	-151.3584136962891	-502.2891845703125	552.7064208984375	-452.7520751953125	-386.6824340820312	576.40283203125	-441.7544250488281	-89.6482162475586	663.2872924804688	-134.7755584716797	-851.1221313476562	318.5081176757812	-383.313232421875	-165.1162261962891	632.5465698242188	-126.3793792724609	-58.31195831298828	572.1102294921875	-169.3395233154297	-134.0704803466797	543.9415893554688	-155.7259826660156	-373.8608703613281	524.3262329101562	-456.9039916992188	-90.44567108154295	526.058837890625	-155.7544555664062	-496.1218566894531	473.5317077636719	-456.1500244140625	-595.0681762695312	465.3486022949219	-439.6163024902344	-26.93589401245117	417.6629333496094	-154.9884643554688	-860.8555297851562	388.0965576171875	-427.7986450195312	-104.0540466308594	399.6561279296875	-141.817626953125	-765.1600952148438	519.2651977539062	-293.9216918945312	-3.915660858154297	318.4313659667969	-164.4263916015625	-82.52591705322266	303.4842834472656	-154.0683288574219	-765.3327026367188	491.1372375488281	-393.416748046875	5.532445907592773	125.9753799438477	-187.0710754394531	176.0315399169922	196.2907257080078	-210.3939666748047	-38.91245269775391	81.83184814453125	-244.7960815429688	-10.41601753234863	67.64803314208984	-275.6239318847656	-25.34364318847656	57.78898620605469	-220.0026397705078	-774.1287841796875	545.7098388671875	-342.0018310546875
